<?xml version="1.0" encoding="UTF-8" standalone="no"?>
<!-- Generator: Adobe Illustrator 19.0.0, SVG Export Plug-In . SVG Version: 6.00 Build 0)  -->

<svg
   version="1.1"
   id="Layer_1"
   x="0px"
   y="0px"
   viewBox="0 0 238.23923 224.34943"
   xml:space="preserve"
   sodipodi:docname="flower-vector_1.svg"
   width="238.23923"
   height="224.34943"
   inkscape:version="1.1.2 (0a00cf5339, 2022-02-04)"
   xmlns:inkscape="http://www.inkscape.org/namespaces/inkscape"
   xmlns:sodipodi="http://sodipodi.sourceforge.net/DTD/sodipodi-0.dtd"
   xmlns="http://www.w3.org/2000/svg"
   xmlns:svg="http://www.w3.org/2000/svg"><defs
   id="defs1479" /><sodipodi:namedview
   id="namedview1477"
   pagecolor="#ffffff"
   bordercolor="#666666"
   borderopacity="1.0"
   inkscape:pageshadow="2"
   inkscape:pageopacity="0.0"
   inkscape:pagecheckerboard="0"
   showgrid="false"
   fit-margin-top="0"
   fit-margin-left="0"
   fit-margin-right="0"
   fit-margin-bottom="0"
   inkscape:zoom="1.0230769"
   inkscape:cx="2.9323308"
   inkscape:cy="387.06767"
   inkscape:window-width="1920"
   inkscape:window-height="1008"
   inkscape:window-x="0"
   inkscape:window-y="0"
   inkscape:window-maximized="1"
   inkscape:current-layer="Layer_1" />
<style
   type="text/css"
   id="style761">
	.Arched_x0020_Green{fill:url(#SVGID_1_);stroke:#FFFFFF;stroke-width:0.25;stroke-miterlimit:1;}
	.st0{fill:url(#SVGID_2_);}
	.st1{fill:#F27FA7;}
	.st2{fill:url(#SVGID_3_);}
	.st3{fill:url(#SVGID_4_);}
	.st4{fill:url(#SVGID_5_);}
	.st5{fill:url(#SVGID_6_);}
	.st6{fill:url(#SVGID_7_);}
	.st7{fill:url(#SVGID_8_);}
	.st8{fill:url(#SVGID_9_);}
	.st9{fill:url(#SVGID_10_);}
	.st10{fill:url(#SVGID_11_);}
	.st11{fill:url(#SVGID_12_);}
	.st12{fill:url(#SVGID_13_);}
	.st13{fill:url(#SVGID_14_);}
	.st14{fill:url(#SVGID_15_);}
	.st15{fill:url(#SVGID_16_);}
	.st16{fill:url(#SVGID_17_);}
	.st17{fill:url(#SVGID_18_);}
	.st18{fill:url(#SVGID_19_);}
	.st19{fill:url(#SVGID_20_);}
	.st20{fill:url(#SVGID_21_);}
	.st21{fill:url(#SVGID_22_);}
	.st22{fill:url(#SVGID_23_);}
	.st23{fill:url(#SVGID_24_);}
	.st24{fill:url(#SVGID_25_);}
	.st25{fill:url(#SVGID_26_);}
	.st26{fill:url(#SVGID_27_);}
	.st27{fill:url(#SVGID_28_);}
	.st28{fill:url(#SVGID_29_);}
	.st29{fill:url(#SVGID_30_);}
	.st30{fill:url(#SVGID_31_);}
	.st31{fill:url(#SVGID_32_);}
	.st32{fill:url(#SVGID_33_);}
	.st33{fill:url(#SVGID_34_);}
	.st34{fill:url(#SVGID_35_);}
	.st35{fill:url(#SVGID_36_);}
	.st36{fill:url(#SVGID_37_);}
	.st37{fill:url(#SVGID_38_);}
	.st38{fill:url(#SVGID_39_);}
	.st39{fill:url(#SVGID_40_);}
	.st40{fill:url(#SVGID_41_);}
	.st41{fill:url(#SVGID_42_);}
	.st42{fill:url(#SVGID_43_);}
	.st43{fill:url(#SVGID_44_);}
	.st44{fill:url(#SVGID_45_);}
	.st45{fill:url(#SVGID_46_);}
	.st46{fill:url(#SVGID_47_);}
	.st47{fill:url(#SVGID_48_);}
	.st48{fill:url(#SVGID_49_);}
	.st49{fill:url(#SVGID_50_);}
	.st50{fill:url(#SVGID_51_);}
	.st51{fill:url(#SVGID_52_);}
	.st52{fill:url(#SVGID_53_);}
	.st53{fill:url(#SVGID_54_);}
	.st54{fill:url(#SVGID_55_);}
	.st55{fill:url(#SVGID_56_);}
	.st56{fill:url(#SVGID_57_);}
	.st57{fill:url(#SVGID_58_);}
	.st58{fill:url(#SVGID_59_);}
	.st59{fill:url(#SVGID_60_);}
	.st60{fill:url(#SVGID_61_);}
	.st61{fill:url(#SVGID_62_);}
	.st62{fill:url(#SVGID_63_);}
	.st63{fill:url(#SVGID_64_);}
	.st64{fill:url(#SVGID_65_);}
	.st65{fill:url(#SVGID_66_);}
	.st66{fill:url(#SVGID_67_);}
	.st67{fill:url(#SVGID_68_);}
	.st68{fill:url(#SVGID_69_);}
	.st69{fill:url(#SVGID_70_);}
	.st70{fill:url(#SVGID_71_);}
</style>
<linearGradient
   id="SVGID_1_"
   gradientUnits="userSpaceOnUse"
   x1="0"
   y1="780"
   x2="0.70709997"
   y2="779.29291">
	<stop
   offset="0"
   style="stop-color:#20AC4B"
   id="stop763" />
	<stop
   offset="0.9831"
   style="stop-color:#19361A"
   id="stop765" />
</linearGradient>


<g
   id="g1051"
   transform="translate(-429.36077,-415.04019)">
	<g
   id="g874">
		<g
   id="g863">
			
				<radialGradient
   id="SVGID_9_"
   cx="570.43268"
   cy="397.87799"
   r="46.453201"
   gradientTransform="matrix(0.5,-0.866,0.866,0.5,-112.7959,884.7313)"
   gradientUnits="userSpaceOnUse">
				<stop
   offset="0"
   style="stop-color:#B83C96"
   id="stop845" />
				<stop
   offset="1"
   style="stop-color:#F7B9D4"
   id="stop847" />
			</radialGradient>
			<path
   class="st8"
   d="m 550.6,597.9 c -10.9,18.9 -41.4,44.5 -61.3,41.2 -0.5,-0.1 -0.9,-0.3 -1.2,-0.7 -12.8,-15.5 -5.9,-54.8 5,-73.6 10.4,-18 31.1,-27.8 51.6,-24.4 0.5,0.1 0.9,0.3 1.2,0.7 13.2,16 15,38.8 4.7,56.8 z"
   id="path850"
   style="fill:url(#SVGID_9_)" />
			
				<radialGradient
   id="SVGID_10_"
   cx="813.21259"
   cy="131.1252"
   r="44.512402"
   gradientTransform="matrix(-0.866,-0.5,0.5,-0.866,1160.0165,1102.2949)"
   gradientUnits="userSpaceOnUse">
				<stop
   offset="0"
   style="stop-color:#F3F3F3"
   id="stop852" />
				<stop
   offset="0.4158"
   style="stop-color:#E4E4E4"
   id="stop854" />
				<stop
   offset="0.499"
   style="stop-color:#E1E1E0"
   id="stop856" />
				<stop
   offset="0.501"
   style="stop-color:#F1F1F1"
   id="stop858" />
			</radialGradient>
			<path
   class="st9"
   d="m 499.2,558.1 c -10.3,17.8 -17.6,56.3 -5.2,71.4 19.2,3.2 48.9,-22.4 59.2,-40.2 10.3,-17.8 7.9,-39.5 -4.5,-54.5 -19.2,-3.2 -39.2,5.5 -49.5,23.3 z"
   id="path861"
   style="fill:url(#SVGID_10_)" />
		</g>
		<g
   id="g872">
			
				<radialGradient
   id="SVGID_11_"
   cx="800.20251"
   cy="143.6514"
   r="40.9655"
   gradientTransform="matrix(-0.866,-0.5,0.5,-0.866,1160.0165,1102.2949)"
   gradientUnits="userSpaceOnUse">
				<stop
   offset="0"
   style="stop-color:#F89A1C"
   id="stop865" />
				<stop
   offset="1"
   style="stop-color:#FDC474"
   id="stop867" />
			</radialGradient>
			<path
   class="st10"
   d="m 510.5,552.8 c -7.9,13.7 -13.5,43.4 -4,55 14.8,2.5 37.7,-17.2 45.6,-31 7.9,-13.7 6.1,-30.5 -3.5,-42 -14.7,-2.5 -30.1,4.2 -38.1,18 z"
   id="path870"
   style="fill:url(#SVGID_11_)" />
		</g>
	</g>
	<g
   id="g905">
		<g
   id="g894">
			
				<radialGradient
   id="SVGID_12_"
   cx="734.1662"
   cy="414.18689"
   r="46.4534"
   gradientTransform="matrix(-0.5,-0.866,0.866,-0.5,596.9404,1424.5194)"
   gradientUnits="userSpaceOnUse">
				<stop
   offset="0"
   style="stop-color:#B83C96"
   id="stop876" />
				<stop
   offset="1"
   style="stop-color:#F7B9D4"
   id="stop878" />
			</radialGradient>
			<path
   class="st11"
   d="m 612.4,556.6 c 10.9,18.9 17.8,58.1 5,73.6 -0.3,0.4 -0.7,0.6 -1.2,0.7 -19.8,3.3 -50.4,-22.3 -61.3,-41.2 -10.4,-18 -8.5,-40.8 4.7,-56.8 0.3,-0.4 0.7,-0.6 1.2,-0.7 20.5,-3.3 41.2,6.5 51.6,24.4 z"
   id="path881"
   style="fill:url(#SVGID_12_)" />
			
				<radialGradient
   id="SVGID_13_"
   cx="796.91168"
   cy="295.2807"
   r="44.512402"
   gradientTransform="matrix(-0.866,0.5,-0.5,-0.866,1421.955,431.3535)"
   gradientUnits="userSpaceOnUse">
				<stop
   offset="0"
   style="stop-color:#F3F3F3"
   id="stop883" />
				<stop
   offset="0.4158"
   style="stop-color:#E4E4E4"
   id="stop885" />
				<stop
   offset="0.499"
   style="stop-color:#E1E1E0"
   id="stop887" />
				<stop
   offset="0.501"
   style="stop-color:#F1F1F1"
   id="stop889" />
			</radialGradient>
			<path
   class="st12"
   d="m 552.3,581.3 c 10.3,17.8 40,43.4 59.2,40.2 12.3,-15 5.1,-53.5 -5.2,-71.4 -10.3,-17.8 -30.3,-26.6 -49.5,-23.4 -12.3,15.1 -14.7,36.7 -4.5,54.6 z"
   id="path892"
   style="fill:url(#SVGID_13_)" />
		</g>
		<g
   id="g903">
			
				<radialGradient
   id="SVGID_14_"
   cx="783.89948"
   cy="307.80661"
   r="40.967098"
   gradientTransform="matrix(-0.866,0.5,-0.5,-0.866,1421.955,431.3535)"
   gradientUnits="userSpaceOnUse">
				<stop
   offset="0"
   style="stop-color:#F89A1C"
   id="stop896" />
				<stop
   offset="1"
   style="stop-color:#FDC474"
   id="stop898" />
			</radialGradient>
			<path
   class="st13"
   d="m 553.4,568.8 c 7.9,13.7 30.8,33.4 45.6,31 9.5,-11.6 3.9,-41.3 -4,-55 -7.9,-13.7 -23.4,-20.5 -38.2,-18 -9.5,11.5 -11.4,28.2 -3.4,42 z"
   id="path901"
   style="fill:url(#SVGID_14_)" />
		</g>
	</g>
	<g
   id="g936">
		<g
   id="g925">
			
				<radialGradient
   id="SVGID_15_"
   cx="786.57959"
   cy="619.74487"
   r="46.454899"
   gradientTransform="matrix(-0.944,0.3298,-0.3298,-0.944,1560.8553,848.0858)"
   gradientUnits="userSpaceOnUse">
				<stop
   offset="0"
   style="stop-color:#B83C96"
   id="stop907" />
				<stop
   offset="1"
   style="stop-color:#F7B9D4"
   id="stop909" />
			</radialGradient>
			<path
   class="st14"
   d="m 593.8,494.3 c 20.6,-7.2 60.4,-6.7 73.3,8.8 0.3,0.4 0.5,0.8 0.5,1.3 -0.5,20.1 -31.3,45.3 -51.9,52.5 -19.6,6.8 -41.7,0.7 -55,-15.2 -0.3,-0.4 -0.5,-0.8 -0.5,-1.3 0.6,-20.7 14,-39.2 33.6,-46.1 z"
   id="path912"
   style="fill:url(#SVGID_15_)" />
			
				<radialGradient
   id="SVGID_16_"
   cx="591.77789"
   cy="347.1124"
   r="44.513401"
   gradientTransform="matrix(0.3298,0.944,-0.944,0.3298,738.2176,-147.7831)"
   gradientUnits="userSpaceOnUse">
				<stop
   offset="0"
   style="stop-color:#F3F3F3"
   id="stop914" />
				<stop
   offset="0.4158"
   style="stop-color:#E4E4E4"
   id="stop916" />
				<stop
   offset="0.499"
   style="stop-color:#E1E1E0"
   id="stop918" />
				<stop
   offset="0.501"
   style="stop-color:#F1F1F1"
   id="stop920" />
			</radialGradient>
			<path
   class="st15"
   d="m 606.8,558 c 19.4,-6.8 50.1,-31.2 50.5,-50.7 -12.5,-14.9 -51.6,-15 -71.1,-8.2 -19.4,6.8 -31.7,24.8 -32.2,44.3 12.5,14.9 33.4,21.3 52.8,14.6 z"
   id="path923"
   style="fill:url(#SVGID_16_)" />
		</g>
		<g
   id="g934">
			
				<radialGradient
   id="SVGID_17_"
   cx="578.76642"
   cy="359.63889"
   r="40.9669"
   gradientTransform="matrix(0.3298,0.944,-0.944,0.3298,738.2176,-147.7831)"
   gradientUnits="userSpaceOnUse">
				<stop
   offset="0"
   style="stop-color:#F89A1C"
   id="stop927" />
				<stop
   offset="1"
   style="stop-color:#FDC474"
   id="stop929" />
			</radialGradient>
			<path
   class="st16"
   d="m 594.7,554.6 c 15,-5.2 38.6,-24.1 38.9,-39.1 -9.6,-11.5 -39.8,-11.5 -54.8,-6.3 -15,5.2 -24.5,19.1 -24.8,34.1 9.7,11.6 25.8,16.5 40.7,11.3 z"
   id="path932"
   style="fill:url(#SVGID_17_)" />
		</g>
	</g>
	<g
   id="g967">
		<g
   id="g956">
			<radialGradient
   id="SVGID_18_"
   cx="568.15918"
   cy="471.42981"
   r="46.2654"
   gradientUnits="userSpaceOnUse">
				<stop
   offset="0"
   style="stop-color:#B83C96"
   id="stop938" />
				<stop
   offset="1"
   style="stop-color:#F7B9D4"
   id="stop940" />
			</radialGradient>
			<path
   class="st17"
   d="m 535.2,477 c 2.6,-21.6 20.7,-57.1 40.3,-61.9 0.5,-0.1 1,-0.1 1.4,0.2 17.8,9.3 26.8,48.1 24.2,69.7 -2.5,20.6 -17.8,37.7 -37.9,42.6 -0.5,0.1 -1,0.1 -1.4,-0.2 -18.5,-9.5 -29.1,-29.8 -26.6,-50.4 z"
   id="path943"
   style="fill:url(#SVGID_18_)" />
			
				<radialGradient
   id="SVGID_19_"
   cx="489.07211"
   cy="206.9182"
   r="44.512501"
   gradientTransform="matrix(0.9926,0.1213,-0.1213,0.9926,107.8824,215.3628)"
   gradientUnits="userSpaceOnUse">
				<stop
   offset="0"
   style="stop-color:#F3F3F3"
   id="stop945" />
				<stop
   offset="0.4158"
   style="stop-color:#E4E4E4"
   id="stop947" />
				<stop
   offset="0.499"
   style="stop-color:#E1E1E0"
   id="stop949" />
				<stop
   offset="0.501"
   style="stop-color:#F1F1F1"
   id="stop951" />
			</radialGradient>
			<path
   class="st18"
   d="m 598,493.5 c 2.5,-20.4 -5.9,-58.7 -23.1,-67.7 -18.9,4.6 -36.2,39.7 -38.7,60.1 -2.5,20.4 8.2,39.4 25.5,48.4 18.8,-4.5 33.8,-20.4 36.3,-40.8 z"
   id="path954"
   style="fill:url(#SVGID_19_)" />
		</g>
		<g
   id="g965">
			
				<radialGradient
   id="SVGID_20_"
   cx="476.0614"
   cy="219.4454"
   r="40.966301"
   gradientTransform="matrix(0.9926,0.1213,-0.1213,0.9926,107.8824,215.3628)"
   gradientUnits="userSpaceOnUse">
				<stop
   offset="0"
   style="stop-color:#F89A1C"
   id="stop958" />
				<stop
   offset="1"
   style="stop-color:#FDC474"
   id="stop960" />
			</radialGradient>
			<path
   class="st19"
   d="m 589.7,502.8 c 1.9,-15.8 -4.5,-45.3 -17.8,-52.2 -14.6,3.5 -27.9,30.6 -29.9,46.4 -1.9,15.8 6.3,30.4 19.6,37.3 14.6,-3.5 26.1,-15.7 28.1,-31.5 z"
   id="path963"
   style="fill:url(#SVGID_20_)" />
		</g>
	</g>
	<g
   id="g998">
		<g
   id="g987">
			
				<radialGradient
   id="SVGID_21_"
   cx="545.87488"
   cy="673.77539"
   r="46.454102"
   gradientTransform="matrix(0.6051,0.7961,-0.7961,0.6051,717.452,-357.702)"
   gradientUnits="userSpaceOnUse">
				<stop
   offset="0"
   style="stop-color:#B83C96"
   id="stop969" />
				<stop
   offset="1"
   style="stop-color:#F7B9D4"
   id="stop971" />
			</radialGradient>
			<path
   class="st20"
   d="m 490.8,512.4 c -13.2,-17.3 -25,-55.4 -14.3,-72.4 0.3,-0.4 0.7,-0.7 1.1,-0.9 19.3,-5.8 52.8,15.8 66,33.1 12.6,16.5 13.6,39.4 2.5,57 -0.3,0.4 -0.7,0.7 -1.1,0.9 -19.8,5.9 -41.6,-1.2 -54.2,-17.7 z"
   id="path974"
   style="fill:url(#SVGID_21_)" />
			
				<radialGradient
   id="SVGID_22_"
   cx="537.6004"
   cy="106.23"
   r="44.512901"
   gradientTransform="matrix(0.7961,-0.6051,0.6051,0.7961,24.3751,732.2345)"
   gradientUnits="userSpaceOnUse">
				<stop
   offset="0"
   style="stop-color:#F3F3F3"
   id="stop976" />
				<stop
   offset="0.4158"
   style="stop-color:#E4E4E4"
   id="stop978" />
				<stop
   offset="0.499"
   style="stop-color:#E1E1E0"
   id="stop980" />
				<stop
   offset="0.501"
   style="stop-color:#F1F1F1"
   id="stop982" />
			</radialGradient>
			<path
   class="st21"
   d="m 547.3,480.4 c -12.5,-16.4 -45.2,-38 -63.8,-32.4 -10.4,16.5 1.7,53.7 14.2,70.1 12.5,16.4 33.4,22.5 52,17 10.4,-16.5 10.1,-38.3 -2.4,-54.7 z"
   id="path985"
   style="fill:url(#SVGID_22_)" />
		</g>
		<g
   id="g996">
			
				<radialGradient
   id="SVGID_23_"
   cx="524.58807"
   cy="118.7565"
   r="40.9669"
   gradientTransform="matrix(0.7961,-0.6051,0.6051,0.7961,24.3751,732.2345)"
   gradientUnits="userSpaceOnUse">
				<stop
   offset="0"
   style="stop-color:#F89A1C"
   id="stop989" />
				<stop
   offset="1"
   style="stop-color:#FDC474"
   id="stop991" />
			</radialGradient>
			<path
   class="st22"
   d="m 547.9,492.9 c -9.6,-12.6 -34.8,-29.3 -49.2,-25 -8,12.7 1.3,41.4 10.9,54.1 9.6,12.6 25.8,17.4 40.1,13.1 8,-12.7 7.8,-29.6 -1.8,-42.2 z"
   id="path994"
   style="fill:url(#SVGID_23_)" />
		</g>
	</g>
	<g
   id="g1029">
		<g
   id="g1018">
			
				<radialGradient
   id="SVGID_24_"
   cx="487.84979"
   cy="515.57971"
   r="46.454601"
   gradientTransform="matrix(0.989,-0.1476,0.1476,0.989,-73.1895,97.5751)"
   gradientUnits="userSpaceOnUse">
				<stop
   offset="0"
   style="stop-color:#B83C96"
   id="stop1000" />
				<stop
   offset="1"
   style="stop-color:#F7B9D4"
   id="stop1002" />
			</radialGradient>
			<path
   class="st23"
   d="m 499.9,566.9 c -21.5,3.2 -60.6,-4.7 -70.3,-22.3 -0.2,-0.4 -0.3,-0.9 -0.2,-1.4 4.2,-19.7 39.2,-38.7 60.8,-41.9 20.5,-3.1 41.1,7.1 51.1,25.2 0.2,0.4 0.3,0.9 0.2,1.4 -4.4,20.2 -21.1,35.9 -41.6,39 z"
   id="path1005"
   style="fill:url(#SVGID_24_)" />
			
				<radialGradient
   id="SVGID_25_"
   cx="695.92249"
   cy="48.5425"
   r="44.513302"
   gradientTransform="matrix(-0.1476,-0.989,0.989,-0.1476,548.7155,1229.6239)"
   gradientUnits="userSpaceOnUse">
				<stop
   offset="0"
   style="stop-color:#F3F3F3"
   id="stop1007" />
				<stop
   offset="0.4158"
   style="stop-color:#E4E4E4"
   id="stop1009" />
				<stop
   offset="0.499"
   style="stop-color:#E1E1E0"
   id="stop1011" />
				<stop
   offset="0.501"
   style="stop-color:#F1F1F1"
   id="stop1013" />
			</radialGradient>
			<path
   class="st24"
   d="m 499,501.9 c -20.4,3 -55,21.3 -59.1,40.3 9.4,17 47.9,24.4 68.3,21.3 20.4,-3 35.8,-18.4 39.9,-37.5 -9.4,-16.9 -28.7,-27.1 -49.1,-24.1 z"
   id="path1016"
   style="fill:url(#SVGID_25_)" />
		</g>
		<g
   id="g1027">
			
				<radialGradient
   id="SVGID_26_"
   cx="682.91089"
   cy="61.0695"
   r="40.966999"
   gradientTransform="matrix(-0.1476,-0.989,0.989,-0.1476,548.7155,1229.6239)"
   gradientUnits="userSpaceOnUse">
				<stop
   offset="0"
   style="stop-color:#F89A1C"
   id="stop1020" />
				<stop
   offset="1"
   style="stop-color:#FDC474"
   id="stop1022" />
			</radialGradient>
			<path
   class="st25"
   d="m 510.3,507.5 c -15.7,2.3 -42.4,16.4 -45.6,31.1 7.3,13.1 37,18.8 52.7,16.4 15.7,-2.3 27.6,-14.2 30.8,-28.9 -7.4,-13.1 -22.2,-21 -37.9,-18.6 z"
   id="path1025"
   style="fill:url(#SVGID_26_)" />
		</g>
	</g>
	<linearGradient
   id="SVGID_27_"
   gradientUnits="userSpaceOnUse"
   x1="495.64719"
   y1="531.92511"
   x2="604.04401"
   y2="531.92511">
		<stop
   offset="0"
   style="stop-color:#F1D91D"
   id="stop1031" />
		<stop
   offset="0.3382"
   style="stop-color:#F3DD32"
   id="stop1033" />
		<stop
   offset="0.9848"
   style="stop-color:#FAE75E"
   id="stop1035" />
		<stop
   offset="1"
   style="stop-color:#FAE85F"
   id="stop1037" />
	</linearGradient>
	<path
   class="st26"
   d="m 549.7,549.4 c 4.5,38.5 5.7,39.8 1.1,1.2 2.7,20 17.1,28.7 23.3,25.4 6.3,-3.4 4.3,-19.1 -11.4,-32 29.5,22.7 29.4,18.8 0,-3.2 33.2,15.6 36.6,13.9 2.8,-1.5 17.9,7.4 37.6,1.3 38.4,-5.5 0.9,-7.3 -18.6,-15.5 -38.2,-8.2 36,-14.1 34.3,-14.5 -1.6,-0.4 29.5,-17.9 28,-24.1 -1.1,-4.4 16.6,-12.7 17.6,-32.8 10.7,-36 -6.4,-3 -20,9.6 -22.8,28.8 2.9,-35.3 -3.3,-33.8 -4.4,1.1 -4.9,-38.4 -5.9,-39.4 -0.9,-0.9 -2.8,-19.2 -18.2,-31.5 -24.5,-28.6 -6.6,3.1 -3.6,22.3 12.6,35.3 -30.2,-22.3 -30.3,-18.9 -0.2,2.9 -33.6,-15.9 -36.6,-14.2 -2.5,1.5 -19.5,-8.1 -36.4,-0.2 -35.5,7.2 0.8,6.7 17.4,13 35.3,6.4 -36.4,14.1 -35.1,14.6 1.2,0.4 -30.3,17.7 -28.8,23.9 1.1,4.4 -16.4,12.2 -17.3,31.9 -11.1,35.6 6.3,3.8 19.9,-8.4 23.1,-28.4 -3.4,35.1 2.8,33.6 4.6,-1.1 z"
   id="path1040"
   style="fill:url(#SVGID_27_)" />
	<g
   id="g1049">
		<radialGradient
   id="SVGID_28_"
   cx="549.85181"
   cy="533.71478"
   r="27.2904"
   gradientUnits="userSpaceOnUse">
			<stop
   offset="0"
   style="stop-color:#F37021"
   id="stop1042" />
			<stop
   offset="1"
   style="stop-color:#FBB273"
   id="stop1044" />
		</radialGradient>
		<path
   class="st27"
   d="m 577.2,533.7 c 0,0.2 -24.9,-0.1 -24.9,0.1 0,0.2 24.9,2 24.8,2.2 0,0.2 -24.8,-2.2 -24.9,-2 0,0.2 24.6,4.1 24.6,4.3 0,0.2 -24.5,-4.3 -24.6,-4.1 0,0.2 24.2,6.2 24.1,6.4 -0.1,0.2 -24.1,-6.4 -24.2,-6.2 -0.1,0.2 23.5,8.2 23.5,8.4 -0.1,0.2 -23.5,-8.4 -23.5,-8.2 -0.1,0.2 22.7,10.2 22.7,10.4 -0.1,0.2 -22.7,-10.4 -22.7,-10.2 -0.1,0.2 21.8,12.1 21.7,12.3 -0.1,0.2 -21.7,-12.3 -21.8,-12.1 -0.1,0.2 20.7,13.9 20.6,14.1 -0.1,0.2 -20.6,-14.1 -20.7,-13.9 -0.1,0.2 19.4,15.6 19.3,15.8 -0.1,0.2 -19.3,-15.8 -19.4,-15.6 -0.1,0.2 18.1,17.2 17.9,17.3 -0.1,0.2 -17.9,-17.3 -18.1,-17.2 -0.2,0.1 16.6,18.6 16.4,18.7 -0.2,0.1 -16.4,-18.7 -16.6,-18.6 -0.2,0.1 14.9,20 14.8,20.1 -0.2,0.1 -14.7,-20.1 -14.9,-20 -0.2,0.1 13.2,21.2 13,21.3 -0.2,0.1 -13,-21.3 -13.2,-21.2 -0.2,0.1 11.3,22.2 11.1,22.3 -0.2,0.1 -11.1,-22.3 -11.3,-22.2 -0.2,0.1 9.4,23.1 9.2,23.2 -0.2,0.1 -9.2,-23.2 -9.4,-23.1 -0.2,0.1 7.4,23.8 7.2,23.9 -0.2,0.1 -7.2,-23.9 -7.4,-23.8 -0.2,0.1 5.3,24.4 5.1,24.4 -0.2,0 -5.1,-24.4 -5.3,-24.4 -0.2,0 3.3,24.7 3.1,24.7 -0.2,0 -3,-24.7 -3.2,-24.7 -0.2,0 1.1,24.9 0.9,24.9 -0.2,0 -0.9,-24.9 -1.2,-24.9 -0.2,0 -0.9,24.9 -1.1,24.9 -0.2,0 1.1,-24.9 0.9,-24.9 -0.2,0 -3,24.7 -3.2,24.7 -0.2,0 3.3,-24.7 3.1,-24.7 -0.2,0 -5.1,24.4 -5.3,24.4 -0.2,0 5.3,-24.3 5.1,-24.4 -0.2,-0.1 -7.2,23.9 -7.4,23.8 -0.2,-0.1 7.4,-23.8 7.2,-23.9 -0.2,-0.1 -9.2,23.2 -9.4,23.1 -0.2,-0.1 9.4,-23.1 9.2,-23.2 -0.2,-0.1 -11.2,22.3 -11.3,22.2 -0.2,-0.1 11.3,-22.2 11.1,-22.3 -0.2,-0.1 -13,21.3 -13.2,21.2 -0.2,-0.1 13.2,-21.2 13,-21.3 -0.2,-0.1 -14.8,20.1 -14.9,20 -0.2,-0.1 15,-19.9 14.8,-20.1 -0.2,-0.1 -16.4,18.8 -16.6,18.6 -0.2,-0.1 16.6,-18.6 16.4,-18.8 -0.2,-0.1 -17.9,17.3 -18.1,17.2 -0.1,-0.2 18.1,-17.2 17.9,-17.3 -0.1,-0.2 -19.3,15.8 -19.4,15.6 -0.1,-0.2 19.4,-15.6 19.3,-15.8 -0.1,-0.2 -20.6,14.1 -20.7,13.9 -0.1,-0.2 20.7,-13.9 20.6,-14.1 -0.1,-0.2 -21.7,12.3 -21.8,12.1 -0.1,-0.2 21.8,-12.1 21.7,-12.3 -0.1,-0.2 -22.7,10.4 -22.8,10.2 -0.1,-0.2 22.8,-10.2 22.7,-10.4 -0.1,-0.2 -23.5,8.4 -23.5,8.2 -0.1,-0.2 23.5,-8.2 23.5,-8.4 -0.1,-0.2 -24.1,6.4 -24.2,6.2 -0.1,-0.2 24.1,-6.2 24.1,-6.4 0,-0.2 -24.6,4.3 -24.6,4.1 0,-0.2 24.6,-4.1 24.6,-4.3 0,-0.2 -24.8,2.2 -24.9,2 0,-0.2 24.8,-2 24.8,-2.2 0,-0.2 -24.9,0.1 -24.9,-0.1 0,-0.2 24.9,0.1 24.9,-0.1 0,-0.2 -24.9,-2 -24.8,-2.2 0,-0.2 24.8,2.2 24.9,2 0,-0.2 -24.6,-4.1 -24.6,-4.3 0,-0.2 24.6,4.3 24.6,4.1 0,-0.2 -24.2,-6.2 -24.1,-6.4 0.1,-0.2 24.1,6.4 24.2,6.2 0.1,-0.2 -23.5,-8.2 -23.5,-8.4 0.1,-0.2 23.5,8.4 23.5,8.2 0.1,-0.2 -22.8,-10.2 -22.7,-10.4 0.1,-0.2 22.7,10.4 22.8,10.2 0.1,-0.2 -21.8,-12.1 -21.7,-12.3 0.1,-0.2 21.7,12.3 21.8,12.1 0.1,-0.2 -20.7,-13.9 -20.6,-14.1 0.1,-0.2 20.6,14.1 20.7,13.9 0.1,-0.2 -19.4,-15.6 -19.3,-15.8 0.1,-0.2 19.3,15.7 19.5,15.6 0.1,-0.2 -18.1,-17.2 -17.9,-17.3 0.1,-0.2 17.9,17.3 18.1,17.2 0.2,-0.1 -16.6,-18.6 -16.4,-18.8 0.2,-0.1 16.4,18.8 16.6,18.6 0.2,-0.1 -14.9,-20 -14.8,-20.1 0.2,-0.1 14.7,20.1 14.9,20 0.2,-0.1 -13.2,-21.2 -13,-21.3 0.2,-0.1 13,21.3 13.2,21.2 0.2,-0.1 -11.3,-22.2 -11.1,-22.3 0.2,-0.1 11.1,22.3 11.3,22.2 0.2,-0.1 -9.4,-23.1 -9.2,-23.2 0.2,-0.1 9.2,23.2 9.4,23.1 0.2,-0.1 -7.4,-23.8 -7.2,-23.9 0.2,-0.1 7.2,23.9 7.4,23.8 0.2,-0.1 -5.3,-24.4 -5.1,-24.4 0.2,0 5.1,24.4 5.3,24.4 0.2,0 -3.3,-24.7 -3.1,-24.7 0.2,0 3,24.7 3.2,24.7 0.2,0 -1.1,-24.9 -0.9,-24.9 0.2,0 0.9,24.9 1.2,24.9 0.2,0 0.9,-24.9 1.1,-24.9 0.2,0 -1.1,24.9 -0.9,24.9 0.2,0 3,-24.7 3.2,-24.7 0.2,0 -3.3,24.7 -3.1,24.7 0.2,0 5.2,-24.4 5.4,-24.3 0.2,0 -5.4,24.3 -5.2,24.4 0.2,0.1 7.2,-23.9 7.4,-23.8 0.2,0.1 -7.4,23.8 -7.2,23.9 0.2,0.1 9.2,-23.2 9.4,-23.1 0.2,0.1 -9.4,23.1 -9.2,23.2 0.2,0.1 11.2,-22.3 11.3,-22.2 0.2,0.1 -11.3,22.2 -11.2,22.3 0.2,0.1 13,-21.3 13.2,-21.2 0.2,0.1 -13.2,21.2 -13,21.3 0.2,0.1 14.8,-20.1 14.9,-20 0.2,0.1 -14.9,20 -14.8,20.1 0.2,0.1 16.4,-18.8 16.6,-18.6 0.2,0.1 -16.6,18.6 -16.4,18.8 0.2,0.1 17.9,-17.3 18.1,-17.2 0.1,0.2 -18,17.2 -17.9,17.3 0.1,0.2 19.3,-15.8 19.4,-15.6 0.1,0.2 -19.4,15.6 -19.3,15.8 0.1,0.2 20.6,-14.1 20.7,-13.9 0.1,0.2 -20.7,13.9 -20.6,14.1 0.1,0.2 21.7,-12.3 21.8,-12.1 0.1,0.2 -21.8,12.1 -21.7,12.2 0.1,0.2 22.7,-10.3 22.8,-10.2 0.1,0.2 -22.8,10.2 -22.7,10.3 0.1,0.2 23.5,-8.4 23.5,-8.2 0.1,0.2 -23.5,8.2 -23.5,8.4 0.1,0.2 24.1,-6.4 24.2,-6.2 0.1,0.2 -24.1,6.1 -24.1,6.4 0,0.2 24.6,-4.3 24.6,-4.1 0,0.2 -24.6,4.1 -24.6,4.3 0,0.2 24.8,-2.2 24.9,-2 0,0.2 -24.8,2 -24.8,2.2 -0.2,0.4 24.8,0.1 24.8,0.3 z"
   id="path1047"
   style="fill:url(#SVGID_28_)" />
	</g>
</g>



</svg>
